<svg xmlns="http://www.w3.org/2000/svg" xmlns:xlink="http://www.w3.org/1999/xlink" width="2000" zoomAndPan="magnify" viewBox="0 0 1500 1499.999933" height="2000" preserveAspectRatio="xMidYMid meet" version="1.0"><defs><clipPath id="8b00c7a86e"><path d="M 207.75 150 L 1292.25 150 L 1292.25 1350 L 207.75 1350 Z M 207.75 150 " clip-rule="nonzero"/></clipPath></defs><g clip-path="url(#8b00c7a86e)"><path fill="#ffffff" d="M 437.226562 469.488281 C 414.679688 519.859375 402.207031 575.746094 402.207031 634.269531 C 402.207031 746.28125 447.542969 847.5 520.9375 920.898438 C 556.195312 956.15625 597.691406 984.699219 643.742188 1005.085938 C 683.800781 1022.835938 708.265625 1060.492188 708.265625 1104.386719 L 708.265625 1108.226562 C 614.242188 1088.558594 530.292969 1042.023438 465.050781 976.542969 C 377.503906 888.996094 323.296875 767.871094 323.296875 634.03125 C 323.296875 599.011719 326.894531 564.949219 334.089844 532.089844 C 303.867188 598.53125 286.839844 672.167969 286.839844 749.878906 L 286.597656 749.878906 C 286.597656 893.792969 344.882812 1024.035156 439.386719 1118.300781 C 495.511719 1174.183594 564.351562 1217.597656 641.34375 1243.503906 C 682.121094 1257.175781 708.503906 1293.875 708.503906 1337.046875 L 708.503906 1341.363281 C 582.582031 1320.257812 470.089844 1260.054688 383.980469 1174.183594 C 275.324219 1065.53125 208.164062 915.621094 208.164062 749.878906 L 207.925781 749.878906 C 207.925781 584.140625 275.085938 434.230469 383.738281 325.816406 C 492.15625 217.160156 642.066406 150 807.804688 150 C 941.644531 150 1062.53125 204.207031 1150.320312 291.753906 C 1237.867188 379.300781 1292.074219 500.429688 1292.074219 634.269531 C 1292.074219 768.109375 1237.867188 888.996094 1150.320312 976.785156 C 1071.886719 1055.21875 966.589844 1106.785156 849.539062 1116.859375 L 849.0625 1289.554688 C 849.0625 1306.347656 842.824219 1320.976562 830.589844 1332.730469 C 818.359375 1344.484375 803.726562 1350 786.9375 1349.519531 C 781.421875 1349.28125 776.144531 1349.039062 770.628906 1348.800781 L 770.628906 1180.183594 C 771.105469 911.78125 771.828125 642.664062 772.304688 373.546875 L 811.402344 373.546875 C 884.078125 373.546875 949.800781 403.046875 997.292969 450.539062 C 1044.78125 498.03125 1074.285156 563.75 1074.285156 636.429688 C 1074.285156 709.105469 1044.78125 774.824219 997.292969 822.316406 C 958.195312 861.414062 906.867188 888.277344 849.78125 896.433594 L 849.78125 923.296875 L 849.539062 1037.707031 C 944.761719 1027.875 1030.390625 985.179688 1094.433594 921.136719 C 1167.828125 847.742188 1213.160156 746.523438 1213.160156 634.507812 C 1213.160156 522.496094 1167.828125 421.277344 1094.433594 347.882812 C 1021.039062 274.246094 919.816406 228.914062 807.804688 228.914062 C 644.464844 228.914062 512.0625 361.3125 512.0625 524.65625 C 512.0625 629.710938 566.75 721.816406 649.261719 774.105469 C 687.398438 798.332031 708.746094 837.1875 708.746094 882.28125 L 708.746094 885.878906 C 549.960938 842.464844 433.390625 697.113281 433.390625 524.65625 C 433.148438 505.707031 434.589844 487.476562 437.226562 469.488281 Z M 850.019531 816.082031 C 885.519531 808.644531 916.941406 790.894531 941.644531 766.191406 C 974.984375 732.851562 995.613281 686.796875 995.613281 636.1875 C 995.613281 585.339844 974.984375 539.285156 941.644531 506.1875 C 917.179688 481.722656 885.757812 464.210938 850.738281 456.535156 L 850.738281 480.28125 Z M 850.019531 816.082031 " fill-opacity="1" fill-rule="evenodd"/></g></svg>